<?xml version="1.0" standalone="no"?>
<!DOCTYPE svg PUBLIC "-//W3C//DTD SVG 20010904//EN"
 "http://www.w3.org/TR/2001/REC-SVG-20010904/DTD/svg10.dtd">
<svg version="1.0" xmlns="http://www.w3.org/2000/svg"
 width="1280.000000pt" height="1068.000000pt" viewBox="0 0 1280.000000 1068.000000"
 preserveAspectRatio="xMidYMid meet">
<metadata>
Created by potrace 1.15, written by Peter Selinger 2001-2017
</metadata>
<g transform="translate(0.000000,1068.000000) scale(0.100000,-0.100000)"
fill="#ffc107" stroke="none">
<path d="M895 10667 c-144 -67 -122 -316 61 -696 112 -234 223 -402 369 -561
48 -52 114 -129 146 -172 100 -130 237 -257 399 -371 52 -36 136 -95 185 -131
139 -101 417 -239 740 -367 119 -47 119 -47 80 -53 -403 -62 -695 -178 -1752
-695 -475 -232 -542 -262 -724 -330 -204 -77 -312 -147 -367 -239 -38 -67 -39
-157 0 -223 107 -181 403 -305 1045 -438 457 -94 738 -127 998 -117 83 3 299
9 480 15 182 5 357 14 389 20 33 6 61 9 63 7 7 -7 -158 -489 -229 -671 -138
-349 -227 -544 -568 -1250 -246 -509 -260 -540 -347 -740 -172 -399 -264 -688
-320 -1010 -21 -126 -25 -513 -5 -620 21 -115 82 -365 109 -445 30 -89 85
-194 145 -271 36 -48 221 -267 320 -381 24 -27 30 -29 66 -23 36 6 47 2 99
-33 484 -328 1341 -613 2258 -751 584 -88 988 -116 1645 -115 560 0 898 20
1370 80 959 121 1776 363 2371 700 52 29 83 41 98 37 18 -5 36 8 89 59 37 36
105 97 152 135 108 90 243 230 302 313 47 66 128 219 128 241 0 6 18 52 41
103 226 500 210 964 -52 1603 -90 220 -182 405 -479 963 -365 688 -479 924
-635 1320 -74 188 -153 418 -201 590 -15 52 -29 100 -31 106 -3 7 56 21 169
40 270 45 472 40 700 -17 175 -43 450 -16 863 86 77 19 228 51 335 70 579 106
1033 259 1235 418 74 58 98 86 136 157 33 64 33 176 0 240 -55 106 -162 198
-337 291 -54 29 -112 66 -129 82 -72 70 -221 154 -402 226 -515 205 -1430 380
-2055 393 -69 1 -124 6 -122 10 3 5 10 8 16 8 18 0 347 140 493 209 196 94
241 123 600 385 95 70 220 191 293 285 36 47 100 122 140 166 158 170 274 344
387 580 114 236 155 372 155 516 0 93 -15 130 -71 171 -117 87 -387 -32 -1087
-478 -125 -80 -310 -186 -412 -238 -285 -144 -625 -287 -640 -269 -4 4 -14 34
-23 66 -28 102 -94 193 -161 221 -99 41 -194 24 -414 -72 -86 -38 -171 -72
-188 -76 -30 -7 -33 -5 -54 39 -58 119 -186 148 -465 105 -162 -26 -267 -30
-273 -12 -7 23 -52 70 -85 91 -18 11 -62 25 -98 30 -77 13 -164 1 -402 -54
-88 -20 -168 -35 -179 -33 -13 2 -25 17 -34 43 -24 73 -95 116 -189 114 -47 0
-154 -28 -357 -92 -82 -26 -172 -50 -202 -53 l-53 -6 -7 35 c-8 43 -46 91 -89
113 -39 21 -130 20 -204 -1 -32 -9 -137 -47 -233 -85 -96 -38 -198 -72 -225
-75 l-50 -7 -21 49 c-13 31 -36 61 -59 79 -34 26 -46 29 -109 28 -78 0 -93 -6
-355 -130 -104 -48 -159 -69 -196 -72 -52 -4 -52 -4 -81 39 -58 86 -129 112
-234 85 -34 -9 -143 -58 -243 -110 -100 -52 -198 -97 -217 -101 -32 -5 -37 -2
-63 34 -17 25 -47 49 -82 67 -49 24 -64 26 -128 21 -44 -3 -115 -19 -182 -41
-60 -20 -137 -39 -170 -42 -58 -6 -62 -5 -105 30 -106 85 -216 48 -291 -99
-40 -78 -22 -78 -229 5 -361 145 -568 252 -890 457 -420 267 -646 395 -809
458 -108 42 -208 54 -256 32z"/>
</g>
</svg>
